<?xml version="1.0" standalone="no"?>
<!DOCTYPE svg PUBLIC "-//W3C//DTD SVG 1.1//EN" "http://www.w3.org/Graphics/SVG/1.1/DTD/svg11.dtd" >
<!--
2013-9-30: Created.
-->
<svg>
<metadata>
Created by iconfont
</metadata>
<defs>

<font id="iconfont" horiz-adv-x="1024" >
  <font-face
    font-family="iconfont"
    font-weight="500"
    font-stretch="normal"
    units-per-em="1024"
    ascent="896"
    descent="-128"
  />
    <missing-glyph />
    
    <glyph glyph-name="x" unicode="x" horiz-adv-x="1001"
d="M281 543q-27 -1 -53 -1h-83q-18 0 -36.5 -6t-32.5 -18.5t-23 -32t-9 -45.5v-76h912v41q0 16 -0.5 30t-0.5 18q0 13 -5 29t-17 29.5t-31.5 22.5t-49.5 9h-133v-97h-438v97zM955 310v-52q0 -23 0.5 -52t0.5 -58t-10.5 -47.5t-26 -30t-33 -16t-31.5 -4.5q-14 -1 -29.5 -0.5
t-29.5 0.5h-32l-45 128h-439l-44 -128h-29h-34q-20 0 -45 1q-25 0 -41 9.5t-25.5 23t-13.5 29.5t-4 30v167h911zM163 247q-12 0 -21 -8.5t-9 -21.5t9 -21.5t21 -8.5q13 0 22 8.5t9 21.5t-9 21.5t-22 8.5zM316 123q-8 -26 -14 -48q-5 -19 -10.5 -37t-7.5 -25t-3 -15t1 -14.5
t9.5 -10.5t21.5 -4h37h67h81h80h64h36q23 0 34 12t2 38q-5 13 -9.5 30.5t-9.5 34.5q-5 19 -11 39h-368zM336 498v228q0 11 2.5 23t10 21.5t20.5 15.5t34 6h188q31 0 51.5 -14.5t20.5 -52.5v-227h-327z" />
    

    
    <glyph glyph-name="cuowu" unicode="&#58931;" d="M512 764c255.84 0 464-208.144 464-464s-208.16-464-464-464-464 208.144-464 464S256.16 764 512 764M512 812c-282.784 0-512-229.232-512-512s229.216-512 512-512 512 229.232 512 512S794.784 812 512 812L512 812zM738.288 118.992 557.248 300l181.024 181.024c12.464 12.496 12.464 32.752 0 45.248-12.496 12.496-32.784 12.496-45.28 0L512 345.264 331.008 526.272c-12.528 12.496-32.784 12.496-45.28 0-12.48-12.496-12.464-32.768 0-45.248L466.752 300 285.712 118.976c-12.464-12.496-12.448-32.768 0-45.264 12.496-12.496 32.784-12.496 45.28 0l181.008 181.04 181.008-181.024c12.496-12.496 32.784-12.496 45.28 0C750.768 86.224 750.768 106.48 738.288 118.992z"  horiz-adv-x="1025" />

    
    <glyph glyph-name="yanjing" unicode="&#59047;" d="M941.797301 400.152888c-8.664334 10.609639-214.94342 259.979126-429.529707 260.436544-213.851553 0-420.836721-248.068865-429.54301-258.635525l-14.275121-17.300015 14.208607-17.003256c8.66331-10.611685 214.100216-260.240069 428.132894-260.240069 226.426963 0 421.305395 247.672846 430.015777 258.238482l14.743796 17.228383L941.797301 400.152888zM524.744767 219.166861c-42.759873 0-81.96478 18.499329-112.134917 48.900733-30.151717 30.344099-46.708811 71.906703-46.613644 114.737184 0.189312 88.262206 72.010057 160.691819 160.101371 160.691819 88.590688-0.204661 159.313425-73.240071 159.14151-161.682379C685.052846 293.542802 607.832114 219.166861 524.744767 219.166861zM526.300192 488.721063c-57.812707 0-104.791671-47.00864-104.912421-104.796788-0.068562-28.066219 10.776438-54.470589 30.521131-74.351382 19.654642-19.786649 44.856627-30.715559 72.674183-30.851659 55.269791 0.191358 105.156992 47.089481 105.264439 104.771205C629.9826 441.378825 584.016709 488.601336 526.300192 488.721063z"  horiz-adv-x="1024" />

    
    <glyph glyph-name="shangsanjiao-copy" unicode="&#58888;" d="M512.41 575.745l-256.205-320.261h512.412z"  horiz-adv-x="1024" />

    
    <glyph glyph-name="footerzhengpin-copy-copy" unicode="&#58882;" d="M69.606 385.268c0-246.423 199.775-446.197 446.197-446.197 112.36 0 214.783 41.577 293.273 110.13-11.764 6.896-21.093 18.051-25.96 31.03-71.392-62.67-164.889-100.597-267.312-100.597-224.112 0-405.634 181.522-405.634 405.634s181.522 405.634 405.634 405.634 405.634-181.522 405.634-405.634c0-82.952-24.947-160.225-67.741-224.518 13.792-3.245 25.758-10.952 34.277-21.701 46.851 70.581 74.029 155.155 74.029 246.219 0 246.423-199.775 446.197-446.197 446.197s-446.197-199.775-446.197-446.197zM312.986 608.366v-60.845h182.536v-324.507h-81.127v263.663h-60.845v-263.663h-60.845v-60.845h446.197v60.845h-182.536v162.253h162.253v60.845h-162.253v101.408h162.253v60.845z"  horiz-adv-x="1030" />

    
    <glyph glyph-name="gantanhao" unicode="&#58896;" d="M512-128C794.769792-128 1024 101.230208 1024 384 1024 666.769792 794.769792 896 512 896 229.230208 896 0 666.769792 0 384 0 101.230208 229.230208-128 512-128ZM469.333333 128C469.333333 151.564147 488.271565 170.666667 512 170.666667 535.564147 170.666667 554.666667 151.728435 554.666667 128 554.666667 104.435853 535.728435 85.333333 512 85.333333 488.435853 85.333333 469.333333 104.271565 469.333333 128ZM469.333333 640.19637C469.333333 663.652067 488.271565 682.666667 512 682.666667 535.564147 682.666667 554.666667 663.224986 554.666667 640.19637L554.666667 298.470298C554.666667 275.014601 535.728435 256 512 256 488.435853 256 469.333333 275.441681 469.333333 298.470298L469.333333 640.19637Z"  horiz-adv-x="1024" />

    
    <glyph glyph-name="rexiaopan" unicode="&#59155;" d="M470.609429-33.132872c12.267457-0.973896 23.961264-1.44068 35.162074-1.44068 206.485062 0 235.983215 159.157356 244.955961 239.926183-53.869745-39.483106-78.937984-73.710603-120.32553-73.710603-14.14871 0-30.2069 4.001441-49.971137 13.160699-77.578965 35.945425 45.723701 227.102213 45.723701 227.102213-147.591587 0-170.296667-121.104848-272.478095-132.455876-3.697981-0.410327-7.191303-0.607929-10.503153-0.607929-88.171846 0-42.47839 140.452709-42.47839 140.452709C119.048174 197.644134 232.18845-14.21046 470.609429-33.132872zM343.174258 188.473786c5.185037 0 10.589856 0.308501 16.06424 0.91643 60.504536 6.721494 99.190177 40.792724 133.320889 70.853439 11.436722 10.072663 22.48933 19.807588 34.116598 28.420416-21.592056-54.112715-27.356793-97.008489-17.644048-130.534297 7.828469-27.019055 25.195269-47.429531 50.220156-59.024537 25.888892-11.997267 49.161574-17.829552 71.148834-17.829552 11.36615 0 21.813854 1.472942 31.582049 4.090161-0.385122-0.575667-0.774277-1.150326-1.168473-1.721961-31.396545-45.655146-82.112722-67.848073-155.044007-67.848073-9.964789 0-20.454836 0.431498-31.176763 1.282397-100.603636 7.983727-178.985108 56.046392-204.556425 125.430921-9.404244 25.517884-11.202826 52.53089-5.381631 80.454277C283.288741 200.667647 310.913709 188.473786 343.174258 188.473786zM863.524961 304.081063c-1.334822-14.646747-2.982178-29.363059-4.972313-44.14591-6.797107-50.492363-20.376198-97.333121-40.359209-139.219713-19.446662-40.76147-44.682258-76.248176-75.007114-105.472107-62.149875-59.894591-144.063988-91.553261-236.885531-91.553261-46.736916 0-92.050291 9.142119-134.678899 27.172297-41.200026 17.426282-78.212098 42.382614-110.00788 74.178396s-56.753121 68.806846-74.179404 110.00788c-18.030178 42.628608-27.172297 87.941983-27.172297 134.679907 0 34.625725 3.910706 87.978277 22.542764 145.510717 20.479032 63.23467 54.291161 118.199292 100.499794 163.368497 65.724859 64.246877 128.812336 99.099441 181.881591 117.590355-1.63929-2.904548-3.137437-5.791958-4.48234-8.658196l-33.673001-71.76382 77.759428 0c0.978937-0.124005 2.530516-0.344795 3.739316-0.517193 8.13697-1.156375 20.434673-2.904548 35.863763-2.904548 64.040201 0 150.761285 31.650605 224.003088 169.798629 14.262633-23.7314 32.50352-58.314783 49.276505-102.784316 21.075871-55.877019 35.686324-116.016595 43.425065-178.747179 0.777302-6.300077 1.458827-12.639474 2.097001-18.993992l50.629475 0C890.113526 731.338016 772.876032 869.280373 757.101138 879.534507 683.666775 688.331343 595.220705 662.723731 544.392621 662.723731c-18.58669 0-32.134528 3.420733-38.091827 3.420733 18.572576 39.580899 94.123096 100.788132 91.610727 100.78914-0.17643 0-0.737983-0.301444-1.731034-0.933569-0.185504-0.117956-0.769237-0.162316-1.732042-0.162316-2.98117 0-9.602854 0.426457-19.333747 0.426457-50.263507 0-183.527938-11.373207-327.019283-151.638396C130.473806 499.64962 109.893957 354.252827 109.893957 269.729561c0-218.93399 177.477888-396.406837 396.406837-396.406837 218.932982 0 371.910233 155.112563 402.169558 379.893961 2.328881 17.294211 4.188962 34.245644 5.635691 50.865387L863.524961 304.082072z"  horiz-adv-x="1024" />

    
    <glyph glyph-name="liebiao" unicode="&#59036;" d="M190.398398 624.496399c-22.249747 0-40.288588-18.038842-40.288588-40.292682s18.038842-40.292682 40.288588-40.292682c22.25384 0 40.292682 18.038842 40.292682 40.292682S212.652238 624.496399 190.398398 624.496399zM351.150592 543.717631l483.512179 0c22.25384 0 40.292682 18.038842 40.292682 40.292682 0 22.25384-18.038842 40.292682-40.292682 40.292682l-483.512179 0c-22.25384 0-40.292682-18.038842-40.292682-40.292682C310.85791 561.756473 328.896752 543.717631 351.150592 543.717631zM190.398398 423.032992c-22.249747 0-40.288588-18.038842-40.288588-40.292682 0-22.25384 18.038842-40.292682 40.288588-40.292682 22.25384 0 40.292682 18.038842 40.292682 40.292682C230.691079 404.99415 212.652238 423.032992 190.398398 423.032992zM834.662771 422.839587l-483.512179 0c-22.25384 0-40.292682-18.038842-40.292682-40.292682 0-22.25384 18.038842-40.292682 40.292682-40.292682l483.512179 0c22.25384 0 40.292682 18.038842 40.292682 40.292682C874.955452 404.800745 856.916611 422.839587 834.662771 422.839587zM190.398398 221.569584c-22.249747 0-40.288588-18.042935-40.288588-40.292682 0-22.25384 18.038842-40.292682 40.288588-40.292682 22.25384 0 40.292682 18.038842 40.292682 40.292682C230.691079 203.526649 212.652238 221.569584 190.398398 221.569584zM834.662771 221.376179l-483.512179 0c-22.25384 0-40.292682-18.038842-40.292682-40.292682s18.038842-40.292682 40.292682-40.292682l483.512179 0c22.25384 0 40.292682 18.038842 40.292682 40.292682S856.916611 221.376179 834.662771 221.376179z"  horiz-adv-x="1024" />

    
    <glyph glyph-name="htmal5icon31-copy" unicode="&#58883;" d="M514.030 818.394c-173.676 0-320.037-120.353-367.152-284.752-42.124-25.367-66.754-74.229-66.754-131.424 0-82.943 50.566-150.199 133.51-150.199 18.457 0 33.377 14.919 33.377 33.377v233.643c0 15.354-10.898 27.405-25.034 31.291 48.735 119.622 161.231 203.394 292.052 203.394 130.821 0 243.319-83.773 292.052-203.394-14.134-3.888-25.034-15.938-25.034-31.291v-233.643c0-18.457 14.919-33.377 33.377-33.377 7.765 0 14.721 0.949 21.903 2.086-10.796-62.282-36.951-108.694-63.626-140.812-16.637-20.032-33.697-34.548-46.938-43.808-6.621-4.63-11.771-7.506-15.646-9.388-1.939-0.941-3.523-1.798-4.172-2.086h-62.582c-12.020 34.852-50.273 60.497-95.961 60.497-55.301 0-100.132-37.359-100.132-83.443s44.831-83.443 100.132-83.443c45.687 0 83.939 25.646 95.961 60.497h65.711c11.282 0 14.15 3.002 20.861 6.258 6.709 3.257 14.593 7.716 22.947 13.558 16.706 11.685 36.867 28.725 56.323 52.153 35.189 42.369 67.957 105.315 76.142 189.835 39.356 26.122 62.582 73.151 62.582 128.293 0 57.195-24.63 106.057-66.754 131.424-47.11 164.4-193.474 284.753-367.15 284.753z"  horiz-adv-x="1024" />

    
    <glyph glyph-name="gengduo" unicode="&#59061;" d="M1023.978511 667.007609 512 153.388738 0.257873 667.007609 0.257873 575.406354 512 63.664228 1023.741104 575.406354Z"  horiz-adv-x="1024" />

    
    <glyph glyph-name="wujiaoxing-copy" unicode="&#58885;" d="M481.487 621.731l-55.723-118.677-130.034-16.37 95.596-89.693-24.646-128.798 114.807 63.246 114.807-63.246-24.646 128.798 95.596 89.693-130.033 16.37-55.724 118.677zM481.487 621.731z"  horiz-adv-x="1024" />

    
    <glyph glyph-name="weibo1" unicode="&#59330;" d="M474.624 369.152c-81.408-3.584-147.456-47.104-147.456-101.888 0-54.272 66.048-95.232 147.456-91.136 81.408 3.584 147.456 54.784 147.456 109.056 0 54.272-66.048 87.552-147.456 83.968z m55.296-136.704c-25.088-32.256-74.24-48.128-122.368-22.016-23.04 12.288-22.016 36.864-22.016 36.864s-9.728 76.8 72.704 86.528c82.432 9.216 96.768-69.12 71.68-101.376zM436.224 272.896c-15.36-1.536-26.112-14.848-26.112-27.648 0-12.8 12.288-21.504 27.648-19.968 15.36 1.536 27.648 13.312 27.648 26.112 0 13.312-11.776 23.552-29.184 21.504zM475.136 283.648c-5.12-3.584-6.144-10.752-3.584-15.36 2.56-4.608 9.216-5.12 14.336-1.024 5.12 4.096 7.168 10.752 4.096 15.36-2.56 4.096-8.704 5.632-14.848 1.024zM512 775.68c-226.304 0-409.6-183.296-409.6-409.6s183.296-409.6 409.6-409.6 409.6 183.296 409.6 409.6-183.296 409.6-409.6 409.6z m182.784-526.848c-33.792-71.168-144.384-105.984-226.304-99.84-77.824 6.144-178.176 31.744-188.416 126.464 0 0-5.632 43.008 35.84 97.792 0 0 59.392 83.456 129.024 107.008 69.632 23.552 77.824-16.384 77.824-39.936-3.584-19.968-10.752-31.744 15.36-23.552 0 0 68.096 31.744 96.256 3.584 22.528-22.528 3.584-53.76 3.584-53.76s-9.216-10.24 9.728-14.336c19.968-3.584 80.896-31.744 47.104-103.424z m-67.072 197.12c-7.68 0-13.312 6.144-13.312 13.312 0 7.68 6.144 13.312 13.312 13.312 0 0 83.456 15.36 73.728-74.752v-1.536c-1.024-6.144-6.656-11.264-13.312-11.264-7.68 0-13.312 6.144-13.312 13.312-0.512 1.024 12.8 60.928-47.104 47.616z m141.312-71.68c-2.048-15.36-9.728-16.384-18.944-16.384-10.752 0-19.456 6.656-19.456 17.408 0 9.216 4.096 18.944 4.096 18.944 1.024 4.096 10.24 28.16-6.144 65.024-29.696 50.176-89.6 50.688-96.768 48.128-7.168-2.56-17.408-4.096-17.408-4.096-10.752 0-19.456 8.704-19.456 19.456 0 9.216 6.144 16.384 14.336 18.944 0 0 0 0.512 0.512 0.512s1.024 0.512 2.048 1.024c8.192 1.536 37.888 7.68 67.072 0.512 51.2-12.8 121.856-62.976 90.112-169.472z"  horiz-adv-x="1024" />

    
    <glyph glyph-name="tui" unicode="&#58954;" d="M510.545882 835.084629c-248.312412 0-449.610044-201.297632-449.610044-449.610045s201.297632-449.610044 449.610044-449.610044c115.538433 0 220.892923 43.586704 300.531727 115.205858l-36.974099 36.9741c-70.140477-62.198597-162.438603-99.966783-263.557628-99.966783-219.476667 0-397.396869 177.921225-397.396869 397.396869S291.070238 782.872476 510.545882 782.872476 907.942751 604.951251 907.942751 385.475608c0-97.197716-34.899858-186.241728-92.845595-255.295454l37.043685-37.043685c67.334571 78.606289 108.015086 180.719968 108.015085 292.339139 0 248.312412-201.296609 449.609021-449.610044 449.609021zM260.715907 190.749648l20.48659-41.471531c26.314319 31.978319 46.300512 54.298673 59.959603 66.954925 23.316032-37.97387 62.957891-57.46069 118.919437-58.46046 92.601025-1.998517 187.372481-2.662643 284.307207-1.998517 5.659907 15.326057 10.32516 28.480658 13.990643 39.473013-100.267635-2.662643-197.701734-3.329838-292.302299-1.998517-47.967478 1.335415-82.279958 18.151405-102.930278 50.465369V457.069179h-97.933473v-36.975123h59.459207v-168.386058c-13.32754-12.326746-34.645055-32.645514-63.956637-60.95835zM323.1734 624.955864l-31.978318-21.485337c17.320481-22.984481 39.473013-55.629995 66.454528-97.933473l35.475979 24.982997c-29.647227 42.302455-52.964282 73.7814-69.952189 94.435813zM717.906603 387.616364c-34.976606-18.987447-69.121264-36.475749-102.430904-52.464909a33345.560158 33345.560158 0 0 1-74.948992 45.469588l-20.48659-27.480888c74.613348-47.304376 139.237181-90.774423 193.868429-130.411165l24.982998 34.976606c-23.984251 15.653515-53.963029 34.640961-89.939406 56.961316a10874.036427 10874.036427 0 0 0 94.435813 38.474266l-25.481348 34.475186zM446.590268 281.188426c0-13.326517-4.833075-24.651446-14.490016-33.976835l28.480658-37.474497c9.325389 6.659677 18.651802 12.491499 27.981285 17.488303 32.30987 15.653515 64.288189 29.480428 95.934956 41.47153-1.335415 12.655228-2.166339 25.814945-2.49789 39.473014-38.310537-16.656355-70.78823-30.147624-97.4341-40.472784V398.109346H660.445914v-12.990872h37.474496V612.963739H446.590268v-331.775313z m37.97387 297.798477h175.880752v-56.961316H484.564138V578.986903z m0-89.939405h175.880752v-56.961316H484.564138v56.961316z"  horiz-adv-x="1024" />

    
    <glyph glyph-name="you" unicode="&#58956;" d="M510.545882 835.084629c-248.312412 0-449.610044-201.297632-449.610044-449.610045s201.297632-449.610044 449.610044-449.610044c115.538433 0 220.892923 43.586704 300.531727 115.205858l-36.974099 36.9741c-70.140477-62.198597-162.438603-99.966783-263.557628-99.966783-219.476667 0-397.396869 177.921225-397.396869 397.396869S291.070238 782.872476 510.545882 782.872476 907.942751 604.951251 907.942751 385.475608c0-97.197716-34.899858-186.241728-92.845595-255.295454l37.043685-37.043685c67.334571 78.606289 108.015086 180.719968 108.015085 292.339139 0 248.312412-201.296609 449.609021-449.610044 449.609021zM291.195082 544.50967h96.435353v89.939406h36.975122v-89.939406h96.43433v-365.752148h-36.975123v27.480888H328.170205v-35.475979h-36.975123V544.50967z m36.975123-149.897985h59.46023V509.534088h-59.46023v-114.922403z m0-153.395645h59.46023V359.635079h-59.46023v-118.419039z m155.894559 268.318048h-59.459207v-114.922403h59.459207V509.534088z m-59.459207-268.318048h59.459207V359.635079h-59.459207v-118.419039z m320.282561 53.963029c0-47.304376-17.488303-73.617671-52.464909-78.946027-16.98893-2.334161-37.474496-2.49789-61.458747-0.499373-2.665713 13.654998-6.332219 27.64564-10.992355 41.971927 24.315802-3.997034 44.134173-5.164626 59.459207-3.497661 17.987676 1.662873 26.981515 15.821337 26.981514 42.4713 0 37.97387-20.985964 77.447906-62.956867 118.420064a8273.562621 8273.562621 0 0 1 55.962569 145.401577h-90.438778V142.78217h-37.97387V595.475436h168.885432v-34.976606c-19.323091-47.635927-37.642319-93.936439-54.9628-138.90563 39.97341-40.308031 59.959603-82.443687 59.959604-126.414131z"  horiz-adv-x="1024" />

    
    <glyph glyph-name="iconfont-iconfangdajing" unicode="&#59114;" d="M933.438456 77.181071l-68.934243 72.165536-3.231292 3.231292c121.40428 164.18044 105.093946 400.526415-42.622289 548.24265C739.86864 779.60254 631.543402 825.609993 519.986871 825.609993s-220.035641-42.622288-298.817633-124.635573c-164.18044-164.18044-164.18044-433.300954 0-600.712687 78.781992-78.781992 187.10723-124.789444 298.663762-124.789444 91.861033 0 177.259481 29.543247 249.425016 82.013284l3.231293-3.231292 72.165535-72.165536c13.079042-13.079042 29.543247-19.695498 46.007452-19.695498 16.464205 0 32.77454 6.616456 46.007453 19.695498 23.080662 26.158083 23.080662 68.934243-3.231293 95.092326z m-669.64693 72.319407c-137.868485 137.868485-137.868485 364.366712 0 505.46649 68.934243 68.934243 157.563983 105.093946 252.810181 105.093946s183.875938-36.159703 252.81018-105.093946c137.868485-137.868485 137.868485-364.366712 0-505.46649-68.934243-68.934243-157.563983-105.093946-252.81018-105.093946s-183.875938 36.159703-252.810181 105.093946z"  horiz-adv-x="1024" />

    
    <glyph glyph-name="gouwuche-s" unicode="&#58887;" d="M861.696 143.36H331.264c-27.136 0-57.856 26.112-83.968 71.68 6.656 66.048 48.128 112.128 86.528 170.496L163.84 750.08C124.416 762.88 92.16 766.464 53.76 783.36c-7.68 19.456 4.096 39.936 25.6 48.64h143.36c11.264-29.184 50.176-93.696 70.144-108.544 260.096 10.24 642.56 15.36 683.008-11.264C943.616 588.8 819.2 399.36 775.68 344.064c-112.64-10.752-249.856-11.776-398.336-7.168-30.208-44.544-72.704-90.624-52.736-121.344l541.184-7.168c19.456-25.088 27.136-48.64-4.096-65.024zM374.272 6.144m-51.712 0a51.712 51.712 0 1 1 103.424 0 51.712 51.712 0 1 1-103.424 0ZM745.984 11.264m-57.344 0a57.344 57.344 0 1 1 114.688 0 57.344 57.344 0 1 1-114.688 0ZM748.032 48.128c23.04 0 42.496-19.456 42.496-42.496 0-23.04-19.456-42.496-42.496-42.496-23.04 0-42.496 19.456-42.496 42.496 0.512 23.552 19.456 42.496 42.496 42.496m0 38.4c-44.032 0-80.896-36.352-80.896-80.896 0-44.032 36.352-80.896 80.896-80.896 44.032 0 80.896 36.352 80.896 80.896 0 45.568-36.352 80.896-80.896 80.896z m-372.224-38.4c23.04 0 42.496-19.456 42.496-42.496 0-23.04-19.456-42.496-42.496-42.496-23.04 0-42.496 19.456-42.496 42.496-1.024 23.552 18.432 42.496 42.496 42.496m0 38.4c-44.032 0-80.896-36.352-80.896-80.896 0-44.032 36.352-80.896 80.896-80.896s80.896 36.352 80.896 80.896c-0.512 45.568-36.864 80.896-80.896 80.896z m-168.96 727.04c4.608 0 8.704-3.072 10.752-6.656l54.784-95.744h658.432c12.288 0 18.432-7.68 19.968-11.776 2.048-4.096 5.632-12.288 0-23.04L768.512 373.76c-4.096-6.656-11.776-11.776-19.456-11.776H368.128l-60.416-96.768c-10.752-16.384-10.752-36.352-1.024-52.736 9.728-16.384 26.112-27.136 45.056-27.136h492.544c6.656 0 12.288-5.632 12.288-12.288 0-6.656-5.632-12.288-12.288-12.288H354.304c-19.968 0-39.424 5.632-51.712 17.408-30.72 26.112-37.376 68.096-17.408 100.864l64.512 103.936-188.928 404.48H82.944c-6.656 0-12.288 5.632-12.288 13.312 0 6.656 5.632 12.288 12.288 12.288l123.904 0.512m0 38.4H82.944c-27.648 0-50.688-23.04-50.688-50.688s23.04-50.688 50.688-50.688h53.76l171.008-364.032-53.76-86.528c-29.696-48.128-22.016-112.128 25.088-150.528 20.992-18.432 49.152-26.112 76.8-26.112h489.472c27.648 0 50.688 23.04 50.688 50.688s-23.04 50.688-50.688 50.688H352.768c-6.656 0-10.752 4.096-11.776 6.656-2.048 3.072-3.072 8.704 0 13.312l49.152 78.848h359.936c20.992 0 41.472 11.776 52.736 29.696l181.248 303.104c24.064 41.472-4.608 93.184-52.736 93.184H293.888l-44.032 76.8c-8.704 14.848-25.088 25.6-43.008 25.6z"  horiz-adv-x="1026" />

    
    <glyph glyph-name="tuijian" unicode="&#59393;" d="M468.489 383.95a42.52 42.52 0 1 1 87.022 0 42.52 42.52 0 1 1-87.022 0zM512 537.996c-12.35 0-24.707-0.163-37.039-0.485 41.844 59.948 85.752 111.484 128.096 149.86 59.291 53.738 102.104 68.394 118.234 59.082 16.202-9.354 24.892-54.011 7.784-132.69-3.602-16.567 6.908-32.919 23.476-36.52 16.566-3.604 32.918 6.906 36.52 23.475 28.34 130.341-4.523 180.11-37.082 198.908-89.415 51.624-237.966-87.626-353.706-266.23-26.4-2.163-52.338-5.082-77.456-8.757-11.189 31.505-19.984 61.704-26.069 89.88-16.891 78.216-8.178 122.623 7.951 131.934 7.885 4.554 21.743 3.07 39.019-4.173 22.63-9.487 49.959-28.418 79.034-54.746 12.567-11.381 31.981-10.417 43.362 2.151 11.38 12.567 10.417 31.981-2.151 43.362C363.734 822.003 304.446 818.35 272.01 799.624c-65.069-37.568-58.254-152.8-12.413-285.808-131.16-27.517-227.577-78.26-227.577-150.884 0-37.597 26.67-90.941 153.72-131.567a30.666 30.666 0 0 1 9.357-1.468c12.994 0 25.064 8.319 29.233 21.358 5.164 16.148-3.741 33.427-19.89 38.59-76.693 24.524-111.021 54.38-111.021 73.087 0 18.624 34.1 48.374 110.282 72.853 23.808 7.65 49.958 14.293 77.931 19.88 9.767-23.719 20.563-47.712 32.218-71.671-37.537-77.058-64.964-152.16-79.107-217.65-28.02-129.744 4.8-179.322 37.266-198.067 10.832-6.255 24.659-10.83 41.944-10.828 34.34 0.002 82.312 18.063 147.446 76.89 12.582 11.364 13.57 30.777 2.206 43.36s-30.777 13.57-43.36 2.206c-58.937-53.23-101.503-67.714-117.537-58.455-7.896 4.559-13.544 17.324-15.905 35.945-3.091 24.388-0.34 57.58 7.954 95.989 10.607 49.113 29.424 104.365 54.88 161.997 3.535-6.346 7.12-12.67 10.753-18.962 61.554-106.616 133.091-199.443 201.433-261.382 65.521-59.383 113.726-77.594 148.21-77.592 17.279 0.001 31.117 4.574 41.955 10.832 15.093 8.713 34.874 27.177 43.404 65.65 5.528 24.932 5.883 55.802 1.055 91.753-9.212 68.605-36.316 152.2-78.382 241.748-7.209 15.346-25.493 21.941-40.839 14.733-15.345-7.208-21.942-25.494-14.732-40.839 38.87-82.748 64.831-162.233 73.102-223.813 5.048-37.589 4.33-85.3-14.306-96.06-7.895-4.56-21.774-3.067-39.083 4.2-22.666 9.517-50.036 28.495-79.151 54.882-63.744 57.773-131.04 145.346-189.492 246.589a1379.626 1379.626 0 0 0-31.072 56.83 1380.328 1380.328 0 0 0 31.072 56.833 1397.386 1397.386 0 0 0 20.032 33.587A1369.594 1369.594 0 0 0 512 476.598c116.905 0 226.393-14.494 308.297-40.81 76.182-24.48 110.282-54.23 110.282-72.854 0-9.068-8.155-20.285-22.964-31.582-19.41-14.807-49.296-28.978-86.427-40.98-16.134-5.214-24.984-22.52-19.77-38.652 5.215-16.133 22.526-24.98 38.653-19.769 125.552 40.581 151.907 93.63 151.907 130.984 0 114.928-241.459 175.06-479.977 175.06z m-162.362-85.474a1151.252 1151.252 0 0 0-5.825 13.414c4.778 0.637 9.6 1.24 14.449 1.82a1436.993 1436.993 0 0 1-8.624-15.234z"  horiz-adv-x="1024" />

    
    <glyph glyph-name="weixin" unicode="&#58892;" d="M570.624 385.2032c-10.15808 0-20.32128-9.43616-20.32128-21.0432 0-9.43616 10.15808-18.87232 20.32128-18.87232 15.24224 0 26.12736 9.43616 26.12736 18.87232 0 11.61216-10.88512 21.0432-26.12736 21.0432zM503.85408 483.17952c15.96416 0 26.12736 10.15808 26.12736 25.40032 0 15.96928-10.15808 25.40544-26.12736 25.40544-15.24224 0-29.75744-9.43616-29.75744-25.40544 0.00512-15.24224 14.52032-25.40032 29.75744-25.40032zM512 844.8c-254.49472 0-460.8-206.30528-460.8-460.8s206.30528-460.8 460.8-460.8 460.8 206.30528 460.8 460.8-206.30528 460.8-460.8 460.8zM424.90368 267.25888c-27.776 0-48.04608 4.5056-74.32192 12.01152l-75.8272-38.28736 21.77024 64.55808c-53.30432 37.53984-84.8384 84.8384-84.8384 142.64832 0 102.09792 96.10752 180.18304 213.21728 180.18304 103.60832 0 195.95264-61.55776 213.96992-148.64384-7.50592 1.50016-14.2592 2.2528-20.27008 2.2528-102.09792 0-180.93568-76.57984-180.93568-168.91904 0-15.7696 2.25792-30.03392 6.016-45.04576-6.016-0.75776-12.76928-0.75776-18.78016-0.75776z m313.08288-73.5744l15.01184-54.06208-57.05216 32.28672c-21.77536-4.5056-42.79296-11.25888-64.5632-11.25888-100.608 0-180.18816 69.0688-180.18816 154.65984 0 85.5808 79.57504 154.6496 180.18816 154.6496 95.34464 0 180.93568-69.07392 180.93568-154.6496-0.01024-48.0512-32.29696-90.84928-74.33216-121.6256zM360.16128 533.98016c-15.24224 0-31.21152-9.43616-31.21152-25.40032 0-15.24224 15.96928-25.40032 31.21152-25.40032 14.5152 0 26.12736 10.15808 26.12736 25.40032-0.00512 15.96928-11.61728 25.40032-26.12736 25.40032zM684.5696 385.2032c-10.89024 0-20.3264-9.43616-20.3264-21.0432 0-9.43616 9.43616-18.87232 20.3264-18.87232 14.51008 0 25.40032 9.43616 25.40032 18.87232 0 11.61216-10.89024 21.0432-25.40032 21.0432z"  horiz-adv-x="1024" />

    
    <glyph glyph-name="xiangyou" unicode="&#58902;" d="M585.216 380.928L377.344 588.8c-10.24 10.24-10.24 27.136 0.512 37.376 10.24 10.24 27.136 10.752 37.376 0.512l223.232-223.232c1.536-1.024 2.56-2.048 4.096-3.072 5.12-5.12 8.192-12.288 7.68-19.456 0-7.168-2.56-13.824-7.68-18.944-1.024-1.024-2.56-2.56-4.096-3.072l-223.232-223.232c-10.24-10.24-27.136-10.24-37.376 0.512-10.24 10.24-10.752 27.136-0.512 37.376l207.872 207.36zM81.92 380.928c0-236.544 191.488-428.032 428.032-428.032 236.544 0 428.032 191.488 428.032 428.032 0 236.544-191.488 428.032-428.032 428.032C273.408 808.96 81.92 617.472 81.92 380.928z m39.936 0c0 214.016 173.568 388.096 388.096 388.096 214.016 0 388.096-173.568 388.096-388.096 0-214.016-173.568-388.096-388.096-388.096-214.016 0-388.096 174.08-388.096 388.096z"  horiz-adv-x="1024" />

    
    <glyph glyph-name="shoucang" unicode="&#58997;" d="M978.599226 492.556739c4.443816-14.626645-0.467275-33.722194-17.772126-58.174156l-152.936877-201.837666 13.356535-228.999194c-2.317558-51.033318-20.365659-65.998659-50.243027-66.635282-24.00664-0.508044-267.212245 91.429075-267.212246 91.429076l-208.401466-83.221972c-20.767076-7.397996-36.099338-10.731642-47.916061-10.731643-12.34672 0-20.535007 3.437136-26.223843 9.985257-8.517575 9.793956-12.43453 28.475544-9.734371 59.108706 3.462225 115.178557 7.495215 256.552733 7.495214 256.552733s-78.586856 97.763943-142.189554 176.849435c-17.279763 28.262291-21.491509 48.286118-16.263675 63.104063 4.970676 14.131145 19.807438 26.236388 46.903109 34.873133l239.539536 71.471106 120.873666 192.752462c16.495745 25.298702 33.336457 34.531301 50.384151 34.531301 17.540057 0 36.331407-11.418442 52.736205-33.938584 44.817621-66.970841 140.621518-210.314471 140.621518-210.314471s61.699102-16.160185 127.895334-32.009898c63.229506-15.140961 132.502225-33.715922 139.087978-64.794406z m55.176071 19.40602c-11.321224 37.21578-42.017108 63.41767-88.07975 79.236023-1.335967 0.464139-199.372712 53.216025-199.372712 53.216025s-129.262661 193.348315-131.150577 195.68469C590.020952 874.818962 555.110186 896 518.258191 896c-35.870404 0-70.574189-19.023419-98.278259-61.639517L310.785002 660.292745c-46.322936-13.817538-219.324409-65.47807-219.324409-65.47807-43.478518-13.817538-72.957605-37.899444-85.241603-72.775713-12.867308-36.52898-5.735878-74.221442 21.071275-117.800314 1.163483-1.934957 97.942699-122.937202 132.997725-166.610156l-6.679836-230.212855c-4.039262-44.798804 3.484177-80.669209 25.207755-105.657439 17.251538-19.845071 40.947707-29.761334 68.658049-29.761334 18.957562 0 40.047654 4.588075 67.174686 14.259724l189.989581 75.858473c70.627503-25.828698 216.241649-78.891055 216.241649-78.891055s25.088585-8.733964 50.155218-8.727692c58.958174-0.031361 104.286975 39.304404 108.210202 126.901199 0.059585 2.806785-6.504216 117.54002-11.964119 210.72216l139.200877 183.67353c28.456727 40.179369 38.507842 79.452412 27.293245 116.169556v-0.034497 0.034497z"  horiz-adv-x="1038" />

    
    <glyph glyph-name="mobile" unicode="&#58880;" d="M752.928 873.736h-454.082c0 0-65.211 1.039-65.211-67.446l-0.339-813.781c0 0-6.119-67.13 62.163-67.13l460.518-0c0 0 63.179-0.994 63.179 64.398v816.49c0 0 1.987 67.469-66.227 67.469v0zM460.495 840.973h130.377v-32.651h-130.377v32.651zM411.587 840.973c9.032 0 16.325-7.271 16.325-16.303 0-9.032-7.271-16.37-16.325-16.37-8.987 0-16.28 7.316-16.28 16.37-0 9.032 7.271 16.303 16.28 16.303v0zM525.706-9.207c-18.041 0-32.605 14.632-32.605 32.696 0 18.041 14.587 32.718 32.605 32.718 18.019 0 32.605-14.677 32.605-32.718 0.023-18.041-14.587-32.696-32.605-32.696v0zM755.276 121.621h-459.163v654.028h459.163v-654.028zM755.276 121.621z"  horiz-adv-x="1024" />

    
    <glyph glyph-name="qq" unicode="&#58881;" d="M512 874.8c-270.8 0-490.4-219.6-490.4-490.4s219.6-490.6 490.4-490.6 490.4 219.6 490.4 490.4-219.6 490.6-490.4 490.6zM718 278c-19-1.8-22.2 25.6-35 33.8-5.4-26.6-18.2-45.6-36.4-59.6 17-13 48.2-17.2 46.6-45.4-1.8-34.2-64-43.4-109-40.2-33 2.4-52.6 14.4-71.4 27.2-10.4-3.8-21.2-13.6-32.4-18.2-46-19-146.4-11.4-150.4 29.8-2.8 29.2 30.2 34.4 48 46.6-18.4 13.2-32.2 30.8-36.4 58.4-13.4-3.6-16.4-33-35-32.4-19.8 0.6-22.8 41.6-20.8 67.4 3 39.6 31.8 70.4 46.6 90.8-0.8 22.4 0.8 42.6 10.4 54.4 0.4 57.8 20.4 91.8 49.2 120.6 29.2 29.2 73.6 51.4 118 51.8 53 0.6 94.6-25.2 120.6-50.6 23.2-22.8 38.4-47 45.4-83 2.2-10.8 0.8-24 3.8-37.6 1.2-5.6 7.2-11.6 9-19.4 2.4-10-1.2-22.4 1.2-33.8 1.8-8.6 9.8-15 14.2-20.8 12.8-16.4 29.8-43.4 32.4-68.8 3.8-28-0.4-69.4-18.6-71z"  horiz-adv-x="1024" />

    
    <glyph glyph-name="shuruxinmima" unicode="&#58921;" d="M512 256c-17.664 0-32-14.336-32-32v-128c0-17.664 14.336-32 32-32s32 14.336 32 32V224c0 17.664-14.336 32-32 32z m0 256c-72.129 0-138.464-24.16-192-64.449V640c0 106.047 85.953 192 192 192s192-85.953 192-192h64C768 781.377 653.377 896 512 896S256 781.377 256 640v-256.575C216 329.984 192 263.873 192 192c0-176.736 143.264-320 320-320s320 143.264 320 320-143.264 320-320 320z m0-576c-141.377 0-256 114.623-256 256s114.623 256 256 256 256-114.623 256-256-114.623-256-256-256z"  horiz-adv-x="1024" />

    
    <glyph glyph-name="qiandao" unicode="&#58884;" d="M849.764848 85.457455a48.717576 48.717576 0 0 0-48.934787-48.283152H168.401455a48.655515 48.655515 0 0 0-48.934788 48.283152V568.506182A48.934788 48.934788 0 0 0 168.835879 616.727273h78.87903V657.842424H168.835879A90.391273 90.391273 0 0 1 77.575758 568.506182v-483.048727A90.14303 90.14303 0 0 1 168.308364-3.878788H800.581818a90.174061 90.174061 0 0 1 90.825697 89.336243v129.365333h-41.642667v-129.365333z m-49.648484 572.384969H712.455758V616.727273h87.629575a48.934788 48.934788 0 0 0 49.648485-48.283152v-140.163879h41.797818v140.22594a90.360242 90.360242 0 0 1-91.353212 89.336242zM387.878788 657.842424h187.174788V616.727273H387.878788V657.842424z m-67.55297-115.029333a28.609939 28.609939 0 0 1 28.827152 28.423757v141.187879a28.827152 28.827152 0 0 1-57.654303 0v-141.280969a28.330667 28.330667 0 0 1 28.827151-28.330667z m325.259637 0a28.609939 28.609939 0 0 1 28.827151 28.423757v141.187879a28.827152 28.827152 0 0 1-57.654303 0v-141.280969a28.454788 28.454788 0 0 1 28.827152-28.330667z m298.108121-163.095273l-16.384 18.432a9.929697 9.929697 0 0 1-13.777455 0.930909L729.212121 240.702061a9.929697 9.929697 0 0 0-13.777454 0.930909l-62.060606 69.476848a9.929697 9.929697 0 0 1-13.777455 0.899879l-16.694303-14.36703a9.526303 9.526303 0 0 1-0.930909-13.560243l89.677576-100.320969a9.929697 9.929697 0 0 1 13.777454-0.93091l217.646546 187.112728a6.826667 6.826667 0 0 1 0.620606 9.774545z m-659.673212 21.721212z m-41.580606 0a41.580606 41.580606 0 1 1 41.580606 40.835879 41.208242 41.208242 0 0 1-41.580606-40.835879m41.580606-182.427151z m-41.580606 0a41.580606 41.580606 0 1 1 41.580606 40.866909 41.208242 41.208242 0 0 1-41.580606-40.835879m265.960727 182.427152z m-41.580606 0a41.580606 41.580606 0 1 1 41.580606 40.835878 41.208242 41.208242 0 0 1-41.580606-40.835878m41.580606-182.427152z m-41.580606 0a41.580606 41.580606 0 1 1 41.580606 40.835879 41.208242 41.208242 0 0 1-41.580606-40.835879"  horiz-adv-x="1024" />

    
    <glyph glyph-name="dianzishucheng" unicode="&#58895;" d="M304.493392-107.700441c-56.387665 0-96.986784 13.53304-126.30837 40.599119C148.863436-37.779736 135.330396 5.07489 135.330396 65.973568c4.511013 153.374449 2.255507 306.748899 2.255507 457.867842V744.881057C137.585903 826.079295 184.951542 873.444934 268.405286 873.444934h433.057269c49.621145 0 83.453744-27.066079 99.242291-78.942731 4.511013-15.788546-4.511013-31.577093-18.044053-36.088106-15.788546-4.511013-33.832599 4.511013-38.343612 20.299559-9.022026 31.577093-24.810573 38.343612-45.110133 38.343613H266.14978c-49.621145 0-72.176211-22.555066-72.176212-72.176212v-13.533039h656.352423c18.044053-2.255507 29.321586-15.788546 29.321586-31.577093v-778.14978c0-15.788546-13.53304-29.321586-29.321586-29.321586h-164.651982c-128.563877 0-252.61674 0-376.669604-2.255506 0 2.255507-2.255507 2.255507-4.511013 2.255506zM196.229075 672.704846v-146.60793c0-151.118943 0-306.748899-2.255507-457.867841 0-45.110132 6.76652-74.431718 24.810573-92.475771 18.044053-18.044053 47.365639-24.810573 90.220264-24.810573 126.30837 2.255507 248.105727 2.255507 378.92511 2.255507h135.330397v721.762114H196.229075zM672.140969 440.387665H324.792952c-15.788546 0-29.321586 13.53304-29.321586 29.321586 0 15.788546 13.53304 29.321586 29.321586 29.321586h347.348017c15.788546 0 29.321586-13.53304 29.321586-29.321586 0-15.788546-13.53304-29.321586-29.321586-29.321586zM575.154185 287.013216H333.814978c-15.788546 0-29.321586 13.53304-29.321586 29.321586 0 15.788546 13.53304 29.321586 29.321586 29.321586h241.339207c15.788546 0 29.321586-13.53304 29.321586-29.321586 0-15.788546-13.53304-29.321586-29.321586-29.321586z"  horiz-adv-x="1024" />

    
    <glyph glyph-name="duigou" unicode="&#58886;" d="M511.380388 832.025966c-247.396553 0-447.952288-200.554712-447.952288-447.952288s200.555735-447.952288 447.952288-447.952288c247.397576 0 447.952288 200.554712 447.952288 447.952288S758.777965 832.025966 511.380388 832.025966zM760.632195 507.43017l-294.925033-294.927079c-6.656607-6.655584-15.382339-9.984399-24.107047-9.984399s-17.450441 3.328815-24.107047 9.984399L262.130627 367.867578c-13.316284 13.310144-13.316284 34.899858 0 48.210002 13.314237 13.31833 34.899858 13.31833 48.214095 0l131.255393-131.25437 270.816962 270.817985c13.31526 13.317307 34.899858 13.317307 48.215118 0C773.946432 542.331052 773.946432 520.740314 760.632195 507.43017z"  horiz-adv-x="1024" />

    
    <glyph glyph-name="username" unicode="&#59204;" d="M313.1-60.39999999999998c-45.1 14.2-84.9 49.7-108.2 96.5-11.3 22.7-12 29.6-12 121.2 0 94.5 0.4 97.9 13.6 126.2 15 32 52.5 71.3 77.6 81.3 8.9 3.5 16.9 7 17.9 7.7 0.9 0.7-7.7 20.4-19.3 43.8-45.7 92.7-46.3 180-2 274.2 24.7 52.4 69.3 97 122.3 122.3C442.4 831.6 444.7 832 502.1 832s59.7-0.4 99.1-19.2c53.1-25.3 97.6-69.9 122.3-122.3 44.4-94.2 43.8-181.5-2-274.2-11.5-23.4-20.2-43.2-19.3-43.8 0.9-0.7 9-4.2 17.9-7.7 25.1-10 62.6-49.3 77.6-81.3 13.3-28.3 13.6-31.7 13.6-126.2 0-91.6-0.7-98.5-12-121.2-17.3-34.7-49.2-68.8-79.4-84.8L694-62.5l-184-1c-101.3-0.5-189.8 0.9-196.9 3.1zM682.3 3c30.6 15 55 40.8 68 72 5.4 12.9 7.6 37.2 7.5 83.5 0 57.8-1.4 68.3-12.1 91.2-13.4 28.9-46.8 60.3-73.2 69-15.9 5.2-20.8 4-57.4-15.1-25.6-13.3-53.1-23.1-76.5-27.1-50.7-8.7-96.8-0.3-149.4 27.1-36.6 19-41.5 20.3-57.4 15.1-26.4-8.7-59.7-40.2-73.2-69-10.7-22.9-12-33.4-12.1-91.2 0-45.6 2.2-70.7 7.4-83.1 18-43 56.1-74.8 100.7-84 12.2-2.5 84.4-4.2 160.3-3.7l138 0.9 29.4 14.4zM575.7 344.1c86.3 40.6 139.2 149.6 121.8 251.2-13.2 76.7-58 139.1-121.3 168.7-28.7 13.4-39.7 15.8-73.8 15.8s-45.1-2.4-73.8-15.8c-86.3-40.4-136.8-141.4-122-244.1C319.5 430.1 382.2 353.20000000000005 459 333c27.7-7.3 90.1-1.4 116.7 11.1z"  horiz-adv-x="1024" />

    
    <glyph glyph-name="douhao" unicode="&#58907;" d="M551.2 221.6c-7.2 0-16-8.8-25.6-27.2-10.4-18.4-15.2-35.2-16-51.2-0.8-17.6 2.4-30.4 9.6-36.8 7.2-7.2 11.2-14.4 11.2-23.2 0-8.8 4-18.4 11.2-30.4 7.2-11.2 9.6-19.2 6.4-24.8-3.2-5.6-16.8-20.8-41.6-48-15.2-16.8-27.2-30.4-35.2-39.2-8-9.6-14.4-16.8-20-23.2-5.6-6.4-8-10.4-7.2-12 0-1.6 0.8-4 1.6-6.4 9.6-5.6 24-5.6 43.2-0.8 19.2 5.6 38.4 15.2 57.6 29.6 5.6 4 17.6 11.2 36 20.8 47.2 24 82.4 56.8 104.8 99.2 6.4 12.8 10.4 23.2 11.2 32 1.6 8.8 1.6 23.2 0.8 45.6-0.8 20.8-2.4 36-4 44-2.4 8.8-6.4 17.6-13.6 28-7.2 10.4-19.2 21.6-36.8 34.4-17.6 12.8-29.6 18.4-35.2 17.6-3.2-0.8-8.8-2.4-16.8-4s-15.2-6.4-21.6-13.6c-6.4-6.4-12.8-10.4-20-10.4z"  horiz-adv-x="1024" />

    
    <glyph glyph-name="fanye-you" unicode="&#58893;" d="M259.53711406 361.13875477c1.53873767-1.53873767 461.84111742-460.30237975 461.84111741-460.30237973 12.30990128-12.30990128 30.77475318-12.30990128 43.08465448-1e-8 12.30990128 12.30990128 12.30990128 32.31349084-1e-8 43.08465446l-438.76005253 440.29879017 438.76005253 440.40870001c12.30990128 12.30990128 12.30990128 32.31349084 0 43.08465447s-30.77475318 12.30990128-43.08465447 0c0 0-460.30237975-458.7636421-461.84111741-460.30237975-6.15495063-6.15495063-9.23242596-13.84863893-9.23242594-23.0810649 0-7.69368829 3.07747532-17.03602409 9.23242594-23.19097472z"  horiz-adv-x="1024" />

    
    <glyph glyph-name="fanye-you-copy" unicode="&#58894;" d="M764.46288594 406.86124523c-1.53873767 1.53873767-461.84111742 460.30237975-461.84111741 460.30237973-12.30990128 12.30990128-30.77475318 12.30990128-43.08465448 1e-8-12.30990128-12.30990128-12.30990128-32.31349084 1e-8-43.08465446l438.76005253-440.29879017-438.76005253-440.40870001c-12.30990128-12.30990128-12.30990128-32.31349084 0-43.08465447s30.77475318-12.30990128 43.08465447 0c0 0 460.30237975 458.7636421 461.84111741 460.30237975 6.15495063 6.15495063 9.23242596 13.84863893 9.23242594 23.0810649 0 7.69368829-3.07747532 17.03602409-9.23242594 23.19097472z"  horiz-adv-x="1024" />

    
    <glyph glyph-name="arrLeft-fill" unicode="&#59017;" d="M234.88884163 518.52193155l279.65492248-279.65492248 278.8075161 278.8075161z"  horiz-adv-x="1024" />

    


  </font>
</defs>
</svg>
